<svg width="242" height="70" viewBox="0 0 242 70" fill="none" xmlns="http://www.w3.org/2000/svg">
<path d="M240.041 61.9263C240.041 65.6566 236.968 68.6783 233.168 68.6783H8.22632C4.42737 68.6783 1.34375 65.6566 1.34375 61.9263V8.08071C1.34375 4.35208 4.42737 1.31982 8.22632 1.31982H233.166C236.968 1.31982 240.039 4.35208 240.039 8.08071L240.041 61.9263Z" fill="black"/>
<path d="M232.439 1.4022C236.579 1.4022 239.947 4.69876 239.947 8.75001V61.25C239.947 65.3013 236.579 68.5978 232.439 68.5978H8.93997C4.80077 68.5978 1.43263 65.3013 1.43263 61.25V8.75001C1.43263 4.69876 4.80077 1.4022 8.93997 1.4022H232.439ZM232.439 1.31478e-05H8.93997C4.02522 1.31478e-05 0 3.9397 0 8.75001V61.25C0 66.0603 4.02522 70 8.93997 70H232.439C237.354 70 241.379 66.0603 241.379 61.25V8.75001C241.379 3.9397 237.354 1.31478e-05 232.439 1.31478e-05Z" fill="#FFC727"/>
<path d="M53.868 34.6285C53.8161 28.9882 58.5865 26.2442 58.8046 26.1165C56.103 22.2612 51.9155 21.7345 50.4439 21.6925C46.927 21.3302 43.5155 23.7522 41.7239 23.7522C39.8966 23.7522 37.1377 21.7275 34.1642 21.787C30.3379 21.8447 26.7584 24.013 24.7951 27.38C20.7435 34.2452 23.7653 44.334 27.647 49.8832C29.5888 52.601 31.8577 55.6355 34.8276 55.5287C37.7331 55.4115 38.8184 53.7157 42.3247 53.7157C45.7987 53.7157 46.8179 55.5287 49.8468 55.4605C52.965 55.4115 54.9282 52.7305 56.8021 49.9882C59.046 46.8732 59.9471 43.8055 59.9829 43.648C59.9096 43.6235 53.927 41.3887 53.868 34.6285Z" fill="white"/>
<path d="M48.1464 18.042C49.7091 16.1292 50.7783 13.527 50.4815 10.8862C48.2197 10.9842 45.3911 12.4175 43.7622 14.2882C42.3211 15.9367 41.0337 18.6387 41.3663 21.1797C43.907 21.3652 46.5157 19.925 48.1464 18.042Z" fill="white"/>
<path d="M95.9123 55.1328H91.8518L89.6275 48.292H81.8962L79.7775 55.1328H75.8242L83.484 31.8438H88.215L95.9123 55.1328ZM88.957 45.422L86.9455 39.3408C86.7328 38.7195 86.334 37.2565 85.7458 34.9535H85.6743C85.4401 35.944 85.0628 37.407 84.5443 39.3408L82.5685 45.422H88.957Z" fill="white"/>
<path d="M115.609 46.5186C115.609 49.3746 114.82 51.6321 113.243 53.2894C111.831 54.7646 110.077 55.5014 107.983 55.5014C105.723 55.5014 104.099 54.7069 103.111 53.1179H103.039V61.9641H99.2272V43.8569C99.2272 42.0614 99.1789 40.2186 99.0859 38.3286H102.438L102.651 40.9904H102.723C103.994 38.9849 105.923 37.9839 108.512 37.9839C110.536 37.9839 112.226 38.7661 113.578 40.3324C114.933 41.9004 115.609 43.9619 115.609 46.5186ZM111.725 46.6551C111.725 45.0206 111.35 43.6731 110.595 42.6126C109.771 41.5066 108.664 40.9536 107.277 40.9536C106.336 40.9536 105.482 41.2616 104.718 41.8689C103.953 42.4814 103.452 43.2811 103.218 44.2716C103.1 44.7336 103.041 45.1116 103.041 45.4091V48.2091C103.041 49.4306 103.424 50.4614 104.189 51.3031C104.954 52.1449 105.948 52.5649 107.171 52.5649C108.607 52.5649 109.725 52.0224 110.524 50.9409C111.325 49.8576 111.725 48.4296 111.725 46.6551Z" fill="white"/>
<path d="M135.349 46.5186C135.349 49.3746 134.561 51.6321 132.982 53.2894C131.571 54.7646 129.817 55.5014 127.723 55.5014C125.463 55.5014 123.84 54.7069 122.853 53.1179H122.781V61.9641H118.969V43.8569C118.969 42.0614 118.921 40.2186 118.828 38.3286H122.181L122.393 40.9904H122.465C123.734 38.9849 125.664 37.9839 128.254 37.9839C130.277 37.9839 131.966 38.7661 133.322 40.3324C134.672 41.9004 135.349 43.9619 135.349 46.5186ZM131.466 46.6551C131.466 45.0206 131.088 43.6731 130.334 42.6126C129.51 41.5066 128.406 40.9536 127.017 40.9536C126.075 40.9536 125.222 41.2616 124.457 41.8689C123.691 42.4814 123.193 43.2811 122.958 44.2716C122.842 44.7336 122.781 45.1116 122.781 45.4091V48.2091C122.781 49.4306 123.164 50.4614 123.926 51.3031C124.691 52.1431 125.685 52.5649 126.912 52.5649C128.347 52.5649 129.465 52.0224 130.264 50.9409C131.065 49.8576 131.466 48.4296 131.466 46.6551Z" fill="white"/>
<path d="M157.406 48.5968C157.406 50.5778 156.704 52.1896 155.293 53.4338C153.743 54.7936 151.585 55.4726 148.811 55.4726C146.251 55.4726 144.198 54.9896 142.645 54.0218L143.528 50.9121C145.201 51.9026 147.038 52.3996 149.038 52.3996C150.474 52.3996 151.592 52.0811 152.394 51.4476C153.194 50.8141 153.592 49.9636 153.592 48.9031C153.592 47.9581 153.263 47.1618 152.604 46.5161C151.947 45.8703 150.851 45.2701 149.321 44.7153C145.155 43.1946 143.074 40.9668 143.074 38.0373C143.074 36.1228 143.803 34.5531 145.264 33.3316C146.719 32.1083 148.661 31.4976 151.089 31.4976C153.254 31.4976 155.053 31.8668 156.489 32.6036L155.536 35.6451C154.195 34.9311 152.679 34.5741 150.982 34.5741C149.641 34.5741 148.593 34.8978 147.842 35.5418C147.208 36.1176 146.889 36.8193 146.889 37.6506C146.889 38.5711 147.252 39.3323 147.982 39.9308C148.616 40.4838 149.77 41.0823 151.443 41.7281C153.491 42.5348 154.994 43.4781 155.962 44.5596C156.925 45.6376 157.406 46.9868 157.406 48.5968Z" fill="white"/>
<path d="M170.015 41.14H165.814V49.2933C165.814 51.367 166.554 52.403 168.038 52.403C168.719 52.403 169.284 52.3453 169.731 52.2298L169.837 55.063C169.086 55.3378 168.097 55.476 166.872 55.476C165.367 55.476 164.19 55.0263 163.341 54.1285C162.495 53.229 162.07 51.7205 162.07 49.6013V41.1365H159.566V38.3365H162.07V35.2618L165.814 34.1558V38.3365H170.015V41.14Z" fill="white"/>
<path d="M188.969 46.5876C188.969 49.1688 188.215 51.2881 186.709 52.9453C185.131 54.6516 183.035 55.5021 180.423 55.5021C177.905 55.5021 175.901 54.6848 174.406 53.0503C172.911 51.4158 172.164 49.3526 172.164 46.8658C172.164 44.2636 172.933 42.1321 174.476 40.4748C176.015 38.8158 178.093 37.9863 180.705 37.9863C183.223 37.9863 185.249 38.8036 186.777 40.4398C188.24 42.0271 188.969 44.0763 188.969 46.5876ZM185.014 46.7083C185.014 45.1596 184.676 43.8313 183.992 42.7236C183.192 41.3831 182.05 40.7146 180.569 40.7146C179.037 40.7146 177.873 41.3848 177.074 42.7236C176.389 43.8331 176.051 45.1823 176.051 46.7783C176.051 48.3271 176.389 49.6553 177.074 50.7613C177.898 52.1018 179.05 52.7703 180.535 52.7703C181.991 52.7703 183.133 52.0878 183.958 50.7263C184.66 49.5976 185.014 48.2553 185.014 46.7083Z" fill="white"/>
<path d="M201.363 41.6099C200.986 41.5416 200.584 41.5066 200.162 41.5066C198.821 41.5066 197.784 42.0019 197.054 42.9941C196.419 43.8691 196.101 44.9751 196.101 46.3104V55.1216H192.291L192.327 43.6171C192.327 41.6816 192.278 39.9194 192.184 38.3304H195.504L195.643 41.5434H195.749C196.151 40.4391 196.786 39.5501 197.655 38.8834C198.504 38.2831 199.421 37.9839 200.41 37.9839C200.762 37.9839 201.081 38.0084 201.363 38.0521V41.6099Z" fill="white"/>
<path d="M218.408 45.9392C218.408 46.6077 218.363 47.1712 218.269 47.6314H206.833C206.877 49.2904 207.43 50.5592 208.492 51.4342C209.456 52.2164 210.702 52.6084 212.232 52.6084C213.926 52.6084 215.47 52.3442 216.86 51.8139L217.457 54.4039C215.833 55.0969 213.917 55.4417 211.705 55.4417C209.044 55.4417 206.956 54.6752 205.436 53.1439C203.92 51.6127 203.16 49.5564 203.16 46.9769C203.16 44.4447 203.866 42.3359 205.281 40.6542C206.761 38.8587 208.762 37.9609 211.279 37.9609C213.752 37.9609 215.624 38.8587 216.896 40.6542C217.902 42.0804 218.408 43.8444 218.408 45.9392ZM214.773 44.9714C214.798 43.8654 214.55 42.9099 214.033 42.1032C213.373 41.0654 212.359 40.5474 210.995 40.5474C209.749 40.5474 208.735 41.0532 207.961 42.0682C207.326 42.8749 206.949 43.8427 206.833 44.9697H214.773V44.9714Z" fill="white"/>
<path d="M87.7064 17.503C87.7064 19.5628 87.0752 21.1133 85.8147 22.1545C84.6471 23.1153 82.9878 23.5965 80.8387 23.5965C79.773 23.5965 78.8611 23.551 78.0977 23.46V12.2058C79.0936 12.0483 80.1664 11.9678 81.325 11.9678C83.3722 11.9678 84.9153 12.4035 85.9559 13.275C87.1217 14.2603 87.7064 15.669 87.7064 17.503ZM85.7306 17.5538C85.7306 16.2185 85.3694 15.1948 84.6471 14.4808C83.9247 13.7685 82.8698 13.4115 81.4806 13.4115C80.8905 13.4115 80.3881 13.45 79.9715 13.5305V22.0863C80.2021 22.1213 80.6241 22.137 81.2374 22.137C82.6714 22.137 83.7781 21.7468 84.5577 20.9663C85.3373 20.1858 85.7306 19.0483 85.7306 17.5538Z" fill="white"/>
<path d="M98.1849 19.3021C98.1849 20.5709 97.8148 21.6104 97.0745 22.4259C96.2985 23.2641 95.2704 23.6824 93.9867 23.6824C92.7494 23.6824 91.7642 23.2816 91.0293 22.4766C90.2962 21.6734 89.9297 20.6601 89.9297 19.4386C89.9297 18.1611 90.307 17.1129 91.0651 16.2991C91.8232 15.4854 92.8423 15.0776 94.1261 15.0776C95.3634 15.0776 96.3575 15.4784 97.1103 16.2816C97.8255 17.0621 98.1849 18.0701 98.1849 19.3021ZM96.2413 19.3616C96.2413 18.6004 96.0732 17.9476 95.7389 17.4034C95.3455 16.7454 94.7859 16.4164 94.0582 16.4164C93.3054 16.4164 92.7333 16.7454 92.3399 17.4034C92.0038 17.9476 91.8375 18.6109 91.8375 19.3949C91.8375 20.1561 92.0056 20.8089 92.3399 21.3531C92.7458 22.0111 93.3108 22.3401 94.0403 22.3401C94.7555 22.3401 95.3169 22.0059 95.721 21.3356C96.0679 20.7809 96.2413 20.1229 96.2413 19.3616Z" fill="white"/>
<path d="M112.228 15.2563L109.59 23.5058H107.874L106.781 19.9236C106.504 19.0293 106.279 18.1403 106.104 17.2583H106.07C105.907 18.1648 105.682 19.0521 105.392 19.9236L104.232 23.5058H102.496L100.016 15.2563H101.941L102.894 19.1781C103.125 20.1056 103.314 20.9893 103.466 21.8258H103.5C103.64 21.1363 103.871 20.2578 104.196 19.1956L105.392 15.2581H106.919L108.065 19.1116C108.342 20.0513 108.568 20.9561 108.741 21.8276H108.793C108.92 20.9788 109.111 20.0741 109.365 19.1116L110.388 15.2581H112.228V15.2563Z" fill="white"/>
<path d="M121.943 23.496H120.069V18.771C120.069 17.315 119.504 16.587 118.37 16.587C117.814 16.587 117.365 16.7865 117.017 17.1872C116.672 17.588 116.496 18.0605 116.496 18.6012V23.4942H114.623V17.6037C114.623 16.8792 114.599 16.0935 114.555 15.243H116.201L116.289 16.5327H116.341C116.559 16.132 116.884 15.8012 117.312 15.537C117.82 15.229 118.388 15.0732 119.01 15.0732C119.797 15.0732 120.451 15.3217 120.972 15.8205C121.619 16.4312 121.943 17.343 121.943 18.554V23.496Z" fill="white"/>
<path d="M127.11 23.4996H125.238V11.4648H127.11V23.4996Z" fill="white"/>
<path d="M138.146 19.3021C138.146 20.5709 137.776 21.6104 137.035 22.4259C136.259 23.2641 135.23 23.6824 133.948 23.6824C132.709 23.6824 131.723 23.2816 130.99 22.4766C130.257 21.6734 129.891 20.6601 129.891 19.4386C129.891 18.1611 130.268 17.1129 131.026 16.2991C131.784 15.4854 132.803 15.0776 134.085 15.0776C135.324 15.0776 136.317 15.4784 137.071 16.2816C137.786 17.0621 138.146 18.0701 138.146 19.3021ZM136.2 19.3616C136.2 18.6004 136.032 17.9476 135.698 17.4034C135.306 16.7454 134.745 16.4164 134.019 16.4164C133.265 16.4164 132.692 16.7454 132.301 17.4034C131.965 17.9476 131.798 18.6109 131.798 19.3949C131.798 20.1561 131.966 20.8089 132.301 21.3531C132.707 22.0111 133.272 22.3401 134.001 22.3401C134.716 22.3401 135.276 22.0059 135.68 21.3356C136.029 20.7809 136.2 20.1229 136.2 19.3616Z" fill="white"/>
<path d="M147.213 23.4951H145.53L145.391 22.5449H145.339C144.763 23.3026 143.942 23.6824 142.877 23.6824C142.081 23.6824 141.437 23.4321 140.953 22.9351C140.513 22.4836 140.293 21.9219 140.293 21.2551C140.293 20.2471 140.722 19.4789 141.586 18.9469C142.447 18.4149 143.66 18.1541 145.221 18.1664V18.0124C145.221 16.9256 144.638 16.3831 143.47 16.3831C142.639 16.3831 141.906 16.5879 141.273 16.9939L140.892 15.7899C141.675 15.3156 142.642 15.0776 143.783 15.0776C145.986 15.0776 147.091 16.2151 147.091 18.4901V21.5281C147.091 22.3524 147.132 23.0086 147.213 23.4951ZM145.267 20.6601V19.3879C143.2 19.3529 142.167 19.9076 142.167 21.0504C142.167 21.4809 142.285 21.8029 142.526 22.0181C142.768 22.2334 143.075 22.3401 143.442 22.3401C143.853 22.3401 144.237 22.2124 144.588 21.9586C144.94 21.7031 145.156 21.3794 145.237 20.9821C145.256 20.8929 145.267 20.7844 145.267 20.6601Z" fill="white"/>
<path d="M157.862 23.4996H156.2L156.112 22.1748H156.06C155.529 23.1828 154.624 23.6868 153.353 23.6868C152.337 23.6868 151.492 23.2966 150.821 22.5161C150.151 21.7356 149.816 20.7223 149.816 19.4781C149.816 18.1428 150.179 17.0613 150.909 16.2353C151.615 15.4653 152.481 15.0803 153.51 15.0803C154.642 15.0803 155.434 15.4531 155.885 16.2003H155.921V11.4648H157.796V21.2771C157.796 22.0803 157.818 22.8206 157.862 23.4996ZM155.921 20.0206V18.6451C155.921 18.4071 155.903 18.2146 155.869 18.0676C155.763 17.6266 155.536 17.2556 155.191 16.9563C154.842 16.6571 154.422 16.5066 153.938 16.5066C153.239 16.5066 152.691 16.7778 152.289 17.3221C151.89 17.8663 151.688 18.5611 151.688 19.4098C151.688 20.2253 151.88 20.8868 152.264 21.3961C152.67 21.9386 153.217 22.2098 153.902 22.2098C154.517 22.2098 155.009 21.9841 155.382 21.5308C155.744 21.1126 155.921 20.6086 155.921 20.0206Z" fill="white"/>
<path d="M173.888 19.3021C173.888 20.5709 173.518 21.6104 172.778 22.4259C172.002 23.2641 170.975 23.6824 169.69 23.6824C168.454 23.6824 167.469 23.2816 166.732 22.4766C165.999 21.6734 165.633 20.6601 165.633 19.4386C165.633 18.1611 166.01 17.1129 166.768 16.2991C167.526 15.4854 168.545 15.0776 169.831 15.0776C171.067 15.0776 172.062 15.4784 172.813 16.2816C173.529 17.0621 173.888 18.0701 173.888 19.3021ZM171.946 19.3616C171.946 18.6004 171.778 17.9476 171.444 17.4034C171.049 16.7454 170.491 16.4164 169.761 16.4164C169.01 16.4164 168.438 16.7454 168.043 17.4034C167.707 17.9476 167.541 18.6109 167.541 19.3949C167.541 20.1561 167.709 20.8089 168.043 21.3531C168.449 22.0111 169.014 22.3401 169.743 22.3401C170.459 22.3401 171.022 22.0059 171.426 21.3356C171.771 20.7809 171.946 20.1229 171.946 19.3616Z" fill="white"/>
<path d="M183.957 23.496H182.084V18.771C182.084 17.315 181.519 16.587 180.384 16.587C179.828 16.587 179.379 16.7865 179.032 17.1872C178.686 17.588 178.512 18.0605 178.512 18.6012V23.4942H176.636V17.6037C176.636 16.8792 176.615 16.0935 176.57 15.243H178.215L178.303 16.5327H178.355C178.575 16.132 178.9 15.8012 179.326 15.537C179.835 15.229 180.402 15.0732 181.026 15.0732C181.811 15.0732 182.465 15.3217 182.986 15.8205C183.635 16.4312 183.957 17.343 183.957 18.554V23.496Z" fill="white"/>
<path d="M196.571 16.6201H194.507V20.6276C194.507 21.6461 194.874 22.1554 195.6 22.1554C195.936 22.1554 196.215 22.1274 196.435 22.0696L196.483 23.4609C196.113 23.5974 195.627 23.6656 195.028 23.6656C194.288 23.6656 193.712 23.4451 193.295 23.0041C192.877 22.5631 192.669 21.8211 192.669 20.7799V16.6201H191.438V15.2464H192.669V13.7344L194.506 13.1919V15.2446H196.569V16.6201H196.571Z" fill="white"/>
<path d="M206.492 23.4996H204.616V18.8096C204.616 17.3308 204.051 16.5906 202.92 16.5906C202.051 16.5906 201.457 17.0193 201.132 17.8768C201.076 18.0571 201.044 18.2776 201.044 18.5366V23.4978H199.172V11.4648H201.044V16.4366H201.08C201.67 15.5318 202.515 15.0803 203.611 15.0803C204.387 15.0803 205.029 15.3288 205.539 15.8276C206.174 16.4488 206.492 17.3728 206.492 18.5943V23.4996Z" fill="white"/>
<path d="M216.724 18.9915C216.724 19.3205 216.699 19.597 216.654 19.8227H211.035C211.06 20.6382 211.328 21.2595 211.848 21.69C212.324 22.075 212.937 22.2675 213.688 22.2675C214.519 22.2675 215.277 22.138 215.96 21.8772L216.254 23.1512C215.454 23.4907 214.514 23.6605 213.425 23.6605C212.12 23.6605 211.092 23.2842 210.348 22.5317C209.601 21.7792 209.23 20.7695 209.23 19.5025C209.23 18.2582 209.576 17.2222 210.271 16.3962C210.997 15.5142 211.979 15.0732 213.218 15.0732C214.43 15.0732 215.351 15.5142 215.973 16.3962C216.475 17.0962 216.724 17.9625 216.724 18.9915ZM214.936 18.5172C214.95 17.973 214.827 17.504 214.573 17.1085C214.248 16.5992 213.752 16.3437 213.082 16.3437C212.47 16.3437 211.971 16.5922 211.591 17.091C211.28 17.4882 211.095 17.9625 211.035 18.5172H214.936Z" fill="white"/>
</svg>
