<svg width="52" height="68" viewBox="0 0 52 68" fill="none" xmlns="http://www.w3.org/2000/svg">
<path d="M25.658 28.8744L23.8432 24.5837C21.9996 20.2268 18.7932 17.5885 10.6476 13.7235C8.5492 12.7286 6.3865 11.6146 4.78442 10.216C-0.427323 5.61869 -0.00408792 0.2206 0.015855 0L1.84617 0.163244L3.6787 0.311046C3.66762 0.465466 3.45711 4.1539 7.22411 7.46952C8.48051 8.57252 10.3751 9.53875 12.2342 10.4189C18.4542 13.3706 22.7042 15.956 25.4386 19.8827C28.0423 15.7288 32.0375 13.7677 37.9185 10.88L38.8292 10.4388C40.8922 9.42404 42.6959 8.49973 43.8703 7.47173C47.6373 4.16273 47.4157 0.472084 47.4024 0.317664L51.0608 0C51.083 0.2206 51.504 5.61869 46.2989 10.2094C44.781 11.533 42.7535 12.5808 40.4556 13.7125L39.5405 14.1537C32.4497 17.6392 29.199 19.2275 27.2667 24.4932L25.658 28.8744Z" fill="#FFC727"/>
<path d="M37.6355 26.8882C35.3984 26.8927 33.2109 26.2328 31.3525 24.993C29.4942 23.7532 28.0495 21.9898 27.2031 19.9283L30.6045 18.5297C31.0405 19.5903 31.7129 20.5384 32.5711 21.3023C33.4292 22.0662 34.4506 22.6258 35.5579 22.9389C36.6653 23.252 37.8297 23.3104 38.963 23.1096C40.0964 22.9088 41.1691 22.4542 42.0999 21.78C43.0308 21.1058 43.7956 20.2298 44.3364 19.2181C44.8772 18.2064 45.1798 17.0855 45.2215 15.9403C45.2632 14.795 45.0428 13.6553 44.5769 12.6073C44.1111 11.5593 43.412 10.6304 42.5326 9.89096L44.9035 7.09375C46.6678 8.57699 47.9317 10.564 48.5241 12.786C49.1166 15.0079 49.0091 17.3574 48.216 19.5164C47.423 21.6755 45.9828 23.5399 44.0904 24.8572C42.1979 26.1745 39.9446 26.8812 37.6355 26.8816V26.8882Z" fill="#FFC727"/>
<path d="M13.4399 26.8894C11.1306 26.8895 8.87698 26.1831 6.98419 24.8659C5.0914 23.5488 3.65086 21.6844 2.85755 19.5253C2.06425 17.3661 1.95652 15.0164 2.54892 12.7943C3.14133 10.5722 4.40527 8.58492 6.16965 7.10156L8.54285 9.89877C7.66573 10.6396 6.96911 11.5691 6.50559 12.6171C6.04207 13.6652 5.82376 14.8044 5.86713 15.9487C5.91051 17.093 6.21444 18.2125 6.75597 19.2228C7.29751 20.2331 8.06251 21.1077 8.99322 21.7806C9.92393 22.4535 10.996 22.9071 12.1286 23.1073C13.2611 23.3074 14.4246 23.2487 15.531 22.9357C16.6375 22.6227 17.6581 22.0636 18.5157 21.3006C19.3734 20.5375 20.0457 19.5904 20.482 18.5309L23.8812 19.9228C23.0358 21.9874 21.5903 23.7535 19.73 24.9947C17.8697 26.2359 15.6794 26.8957 13.4399 26.8894Z" fill="#FFC727"/>
<path d="M41.1791 18.1379C41.2863 18.1378 41.3931 18.1274 41.4982 18.107C41.0193 18.9227 40.2687 19.5458 39.3766 19.8683C38.4845 20.1907 37.5072 20.1921 36.6141 19.8723C35.7211 19.5525 34.9686 18.9316 34.4873 18.1173C34.0059 17.303 33.826 16.3467 33.9788 15.4142C34.1315 14.4816 34.6073 13.6318 35.3236 13.0119C36.0399 12.392 36.9515 12.0413 37.9003 12.0205C38.8492 11.9997 39.7754 12.3102 40.5184 12.8981C41.2613 13.486 41.7742 14.3142 41.968 15.2392C41.7304 15.0949 41.4575 15.0186 41.1791 15.0186C40.7654 15.0186 40.3686 15.1822 40.0761 15.4735C39.7835 15.7647 39.6192 16.1597 39.6192 16.5716C39.6192 16.9835 39.7835 17.3785 40.0761 17.6698C40.3686 17.961 40.7654 18.1246 41.1791 18.1246V18.1379Z" fill="#FFC727"/>
<path d="M16.6713 19.1012C16.7778 19.1015 16.884 19.0904 16.9881 19.0681C16.5087 19.8828 15.758 20.5048 14.8661 20.8262C13.9743 21.1476 12.9976 21.1482 12.1054 20.8278C11.2132 20.5074 10.4618 19.8863 9.98139 19.0721C9.50101 18.2579 9.32197 17.3021 9.47533 16.3703C9.62869 15.4384 10.1048 14.5894 10.821 13.9705C11.5373 13.3515 12.4485 13.0016 13.3968 12.9814C14.345 12.9612 15.2705 13.272 16.0126 13.86C16.7548 14.4479 17.2669 15.2759 17.4601 16.2003C17.2221 16.057 16.9494 15.9808 16.6713 15.9797C16.2575 15.9797 15.8607 16.1433 15.5682 16.4346C15.2756 16.7258 15.1113 17.1208 15.1113 17.5327C15.1113 17.9446 15.2756 18.3396 15.5682 18.6309C15.8607 18.9221 16.2575 19.0858 16.6713 19.0858V19.1012Z" fill="#FFC727"/>
<path d="M23.3637 67.9997H21.5246C16.9892 67.9945 12.6412 66.1985 9.4342 63.0059C6.22724 59.8132 4.42325 55.4845 4.41797 50.9694V38.5298C4.41914 37.2231 4.94106 35.9703 5.86916 35.0463C6.79727 34.1223 8.05571 33.6027 9.36824 33.6016H23.3637V67.9997ZM9.37046 37.2613C9.03272 37.2619 8.70898 37.3957 8.47016 37.6335C8.23134 37.8712 8.09691 38.1935 8.09633 38.5298V50.9694C8.10047 54.1978 9.27584 57.316 11.4061 59.7501C13.5363 62.1842 16.4781 63.7703 19.6898 64.2165V37.2613H9.37046Z" fill="#FFC727"/>
<path d="M29.5479 67.9997H27.7109V55.4255H31.3871V64.2165C34.5984 63.7698 37.5396 62.1835 39.6694 59.7495C41.7992 57.3154 42.9743 54.1975 42.9783 50.9694V50.0164H27.7109V33.6016H41.7064C43.0186 33.6033 44.2764 34.1232 45.2041 35.0471C46.1317 35.971 46.6533 37.2235 46.6545 38.5298V40.7005H42.9783V38.5298C42.9783 38.1937 42.8444 37.8714 42.6059 37.6336C42.3675 37.3958 42.044 37.2619 41.7064 37.2613H31.3871V46.3567H46.6545V50.9694C46.6492 55.4845 44.8452 59.8132 41.6383 63.0059C38.4313 66.1985 34.0832 67.9945 29.5479 67.9997Z" fill="#FFC727"/>
</svg>
