<svg width="242" height="70" viewBox="0 0 242 70" fill="none" xmlns="http://www.w3.org/2000/svg">
<path d="M233.06 70H9.56107C4.64632 70 0.621094 66.0603 0.621094 61.25V8.75004C0.621094 3.93973 4.64632 4.14928e-05 9.56107 4.14928e-05H233.06C237.975 4.14928e-05 242 3.93973 242 8.75004V61.25C242 66.0603 237.975 70 233.06 70Z" fill="black"/>
<path d="M233.06 1.40223C237.2 1.40223 240.568 4.69879 240.568 8.75004V61.25C240.568 65.3013 237.2 68.5978 233.06 68.5978H9.56107C5.42186 68.5978 2.05372 65.3013 2.05372 61.25V8.75004C2.05372 4.69879 5.42186 1.40223 9.56107 1.40223H233.06ZM233.06 4.14928e-05H9.56107C4.64632 4.14928e-05 0.621094 3.93973 0.621094 8.75004V61.25C0.621094 66.0603 4.64632 70 9.56107 70H233.06C237.975 70 242 66.0603 242 61.25V8.75004C242 3.93973 237.975 4.14928e-05 233.06 4.14928e-05Z" fill="#FFC727"/>
<path d="M85.4067 17.927C85.4067 19.3882 84.9597 20.5585 84.0791 21.4313C83.0667 22.466 81.748 22.9867 80.1321 22.9867C78.5877 22.9867 77.2691 22.4573 76.1873 21.4138C75.1034 20.3551 74.5625 19.0557 74.5625 17.5004C74.5625 15.9451 75.1034 14.6457 76.1873 13.5957C77.2691 12.5435 78.5877 12.0142 80.1321 12.0142C80.9009 12.0142 81.634 12.1695 82.3336 12.4582C83.0309 12.7492 83.5986 13.1429 84.0098 13.6285L83.0756 14.5517C82.3582 13.7226 81.3815 13.3135 80.1321 13.3135C79.0057 13.3135 78.029 13.6985 77.1998 14.4751C76.3796 15.2538 75.9683 16.2623 75.9683 17.5004C75.9683 18.7385 76.3796 19.7557 77.1998 20.5345C78.029 21.3023 79.0057 21.696 80.1321 21.696C81.3278 21.696 82.3336 21.3023 83.127 20.5257C83.65 20.0117 83.9472 19.3029 84.0255 18.3973H80.1321V17.1329H85.3262C85.3888 17.4063 85.4067 17.671 85.4067 17.927Z" fill="white" stroke="white" stroke-width="0.5" stroke-miterlimit="10"/>
<path d="M93.643 13.5443H88.764V16.8693H93.1625V18.1337H88.764V21.4587H93.643V22.7471H87.3828V12.2559H93.643V13.5443Z" fill="white" stroke="white" stroke-width="0.5" stroke-miterlimit="10"/>
<path d="M99.452 22.7481H98.0708V13.5453H95.0781V12.2568H102.447V13.5453H99.452V22.7481Z" fill="white" stroke="white" stroke-width="0.5" stroke-miterlimit="10"/>
<path d="M107.785 22.7466V12.2554H109.164V22.7466H107.785Z" fill="white" stroke="white" stroke-width="0.5" stroke-miterlimit="10"/>
<path d="M115.28 22.7466H113.91V13.5438H110.906V12.2554H118.284V13.5438H115.28V22.7466Z" fill="white" stroke="white" stroke-width="0.5" stroke-miterlimit="10"/>
<path d="M132.232 21.3963C131.175 22.4573 129.866 22.9867 128.303 22.9867C126.732 22.9867 125.422 22.4573 124.365 21.3963C123.31 20.3376 122.785 19.0382 122.785 17.5004C122.785 15.9626 123.31 14.6632 124.365 13.6045C125.422 12.5435 126.732 12.0142 128.303 12.0142C129.857 12.0142 131.166 12.5435 132.224 13.6132C133.287 14.6807 133.813 15.9713 133.813 17.5004C133.813 19.0382 133.287 20.3376 132.232 21.3963ZM125.387 20.517C126.182 21.3023 127.15 21.696 128.303 21.696C129.448 21.696 130.424 21.3023 131.211 20.517C132.005 19.7317 132.407 18.7232 132.407 17.5004C132.407 16.2776 132.005 15.2692 131.211 14.4838C130.424 13.6985 129.448 13.3048 128.303 13.3048C127.15 13.3048 126.182 13.6985 125.387 14.4838C124.593 15.2692 124.191 16.2776 124.191 17.5004C124.191 18.7232 124.593 19.7317 125.387 20.517Z" fill="white" stroke="white" stroke-width="0.5" stroke-miterlimit="10"/>
<path d="M135.758 22.7466V12.2554H137.434L142.646 20.4147H142.706L142.646 18.3979V12.2554H144.025V22.7466H142.586L137.128 14.1847H137.068L137.128 16.2104V22.7466H135.758Z" fill="white" stroke="white" stroke-width="0.5" stroke-miterlimit="10"/>
<path d="M122.45 38.0685C118.25 38.0685 114.819 41.1966 114.819 45.5125C114.819 49.7935 118.25 52.9544 122.45 52.9544C126.658 52.9544 130.089 49.7935 130.089 45.5125C130.089 41.1966 126.658 38.0685 122.45 38.0685ZM122.45 50.0232C120.145 50.0232 118.163 48.1616 118.163 45.5125C118.163 42.8285 120.145 40.9997 122.45 40.9997C124.754 40.9997 126.745 42.8285 126.745 45.5125C126.745 48.1616 124.754 50.0232 122.45 50.0232ZM105.801 38.0685C101.593 38.0685 98.1709 41.1966 98.1709 45.5125C98.1709 49.7935 101.593 52.9544 105.801 52.9544C110.007 52.9544 113.431 49.7935 113.431 45.5125C113.431 41.1966 110.007 38.0685 105.801 38.0685ZM105.801 50.0232C103.495 50.0232 101.505 48.1616 101.505 45.5125C101.505 42.8285 103.495 40.9997 105.801 40.9997C108.105 40.9997 110.088 42.8285 110.088 45.5125C110.088 48.1616 108.105 50.0232 105.801 50.0232ZM85.9902 40.35V43.5132H93.7076C93.4819 45.2807 92.8784 46.58 91.9531 47.4857C90.8267 48.5794 89.0722 49.7935 85.9902 49.7935C81.2408 49.7935 77.5218 46.0419 77.5218 41.3935C77.5218 36.745 81.2408 32.9935 85.9902 32.9935C88.5582 32.9935 90.4266 33.9757 91.8056 35.2488L94.0831 33.0197C92.1543 31.2172 89.5885 29.8325 85.9902 29.8325C79.4774 29.8325 74.0039 35.0191 74.0039 41.3935C74.0039 47.7678 79.4774 52.9544 85.9902 52.9544C89.5103 52.9544 92.1543 51.8257 94.2328 49.7082C96.3628 47.6235 97.0266 44.6922 97.0266 42.3253C97.0266 41.5904 96.964 40.9144 96.8522 40.35H85.9902ZM167 42.8022C166.372 41.1375 164.434 38.0685 160.487 38.0685C156.576 38.0685 153.319 41.085 153.319 45.5125C153.319 49.6819 156.542 52.9544 160.862 52.9544C164.356 52.9544 166.372 50.8697 167.201 49.6557L164.608 47.9647C163.743 49.2028 162.566 50.0232 160.862 50.0232C159.171 50.0232 157.957 49.2641 157.179 47.7678L167.351 43.6488L167 42.8022ZM156.629 45.2807C156.542 42.4107 158.907 40.9407 160.601 40.9407C161.929 40.9407 163.055 41.5904 163.43 42.52L156.629 45.2807ZM148.362 52.5016H151.706V30.6266H148.362V52.5016ZM142.886 39.7266H142.775C142.024 38.856 140.591 38.0685 138.776 38.0685C134.968 38.0685 131.486 41.341 131.486 45.5366C131.486 49.7082 134.968 52.9544 138.776 52.9544C140.591 52.9544 142.024 52.1603 142.775 51.2635H142.886V52.331C142.886 55.1769 141.333 56.706 138.828 56.706C136.785 56.706 135.518 55.2622 134.995 54.0481L132.087 55.236C132.925 57.2091 135.144 59.6372 138.828 59.6372C142.748 59.6372 146.056 57.3797 146.056 51.8869V38.5213H142.886V39.7266ZM139.062 50.0232C136.758 50.0232 134.829 48.1353 134.829 45.5366C134.829 42.9138 136.758 40.9997 139.062 40.9997C141.333 40.9997 143.123 42.9138 143.123 45.5366C143.123 48.1353 141.333 50.0232 139.062 50.0232ZM182.654 30.6266H174.657V52.5016H177.991V44.2132H182.654C186.357 44.2132 189.989 41.5904 189.989 37.4188C189.989 33.2494 186.348 30.6266 182.654 30.6266ZM182.741 41.1704H177.991V33.6694H182.741C185.231 33.6694 186.652 35.6929 186.652 37.4188C186.652 39.1119 185.231 41.1704 182.741 41.1704ZM203.354 38.0269C200.945 38.0269 198.439 39.0682 197.409 41.376L200.368 42.59C201.005 41.376 202.176 40.9822 203.414 40.9822C205.144 40.9822 206.899 41.9994 206.926 43.7953V44.025C206.322 43.6838 205.03 43.1785 203.441 43.1785C200.254 43.1785 197.007 44.8957 197.007 48.1003C197.007 51.0316 199.617 52.9194 202.552 52.9194C204.796 52.9194 206.034 51.9285 206.812 50.7757H206.926V52.4666H210.146V44.0753C210.146 40.1969 207.187 38.0269 203.354 38.0269ZM202.952 50.0144C201.861 50.0144 200.341 49.485 200.341 48.1616C200.341 46.4685 202.237 45.8188 203.877 45.8188C205.346 45.8188 206.034 46.136 206.926 46.5538C206.664 48.5794 204.883 50.0144 202.952 50.0144ZM221.88 38.506L218.047 47.9888H217.933L213.97 38.506H210.374L216.328 51.7578L212.931 59.1319H216.415L225.59 38.506H221.88ZM191.822 52.5016H195.165V30.6266H191.822V52.5016Z" fill="white"/>
<path d="M19.2784 13.1884C18.7532 13.7266 18.4492 14.5644 18.4492 15.6494V54.3506C18.4492 55.4356 18.7532 56.2734 19.2784 56.8116L19.408 56.9297L41.5658 35.2516V34.7397L19.408 13.0616L19.2784 13.1884Z" fill="url(#paint0_linear_989_654)"/>
<path d="M48.948 42.4785L41.5703 35.2488V34.737L48.957 27.5073L49.1224 27.6013L57.8701 32.4729C60.3666 33.8554 60.3666 36.1304 57.8701 37.5216L49.1224 42.3845L48.948 42.4785Z" fill="url(#paint1_linear_989_654)"/>
<path d="M49.1167 42.3908L41.5647 34.9993L19.2773 56.8152C20.1065 57.6683 21.4587 57.7712 22.9964 56.918L49.1167 42.3908Z" fill="url(#paint2_linear_989_654)"/>
<path d="M49.1167 27.6167L22.9964 13.0896C21.4587 12.2452 20.1065 12.348 19.2773 13.2011L41.5647 35.0083L49.1167 27.6167Z" fill="url(#paint3_linear_989_654)"/>
<defs>
<linearGradient id="paint0_linear_989_654" x1="39.5984" y1="54.7536" x2="10.236" y2="24.7537" gradientUnits="userSpaceOnUse">
<stop stop-color="#00A0FF"/>
<stop offset="0.0066" stop-color="#00A1FF"/>
<stop offset="0.2601" stop-color="#00BEFF"/>
<stop offset="0.5122" stop-color="#00D2FF"/>
<stop offset="0.7604" stop-color="#00DFFF"/>
<stop offset="1" stop-color="#00E3FF"/>
</linearGradient>
<linearGradient id="paint1_linear_989_654" x1="61.121" y1="34.9904" x2="17.857" y2="34.9904" gradientUnits="userSpaceOnUse">
<stop stop-color="#FFE000"/>
<stop offset="0.4087" stop-color="#FFBD00"/>
<stop offset="0.7754" stop-color="#FFA500"/>
<stop offset="1" stop-color="#FF9C00"/>
</linearGradient>
<linearGradient id="paint2_linear_989_654" x1="45.0102" y1="30.9811" x2="5.19232" y2="-9.70123" gradientUnits="userSpaceOnUse">
<stop stop-color="#FF3A44"/>
<stop offset="1" stop-color="#C31162"/>
</linearGradient>
<linearGradient id="paint3_linear_989_654" x1="13.6672" y1="69.7" x2="31.4476" y2="51.5336" gradientUnits="userSpaceOnUse">
<stop stop-color="#32A071"/>
<stop offset="0.0685" stop-color="#2DA771"/>
<stop offset="0.4762" stop-color="#15CF74"/>
<stop offset="0.8009" stop-color="#06E775"/>
<stop offset="1" stop-color="#00F076"/>
</linearGradient>
</defs>
</svg>
