<svg width="40" height="40" viewBox="0 0 40 40" fill="none" xmlns="http://www.w3.org/2000/svg">
<path d="M12.7984 2.3999C7.08207 2.3999 2.39844 7.08354 2.39844 12.7999V27.1999C2.39844 32.9163 7.08207 37.5999 12.7984 37.5999H27.1984C32.9148 37.5999 37.5984 32.9163 37.5984 27.1999V12.7999C37.5984 7.08354 32.9148 2.3999 27.1984 2.3999H12.7984ZM12.7984 3.9999H27.1984C32.0421 3.9999 35.9984 7.95627 35.9984 12.7999V27.1999C35.9984 32.0435 32.0421 35.9999 27.1984 35.9999H12.7984C7.9548 35.9999 3.99844 32.0435 3.99844 27.1999V12.7999C3.99844 7.95627 7.9548 3.9999 12.7984 3.9999ZM29.5984 8.7999C28.7184 8.7999 27.9984 9.5199 27.9984 10.3999C27.9984 11.2799 28.7184 11.9999 29.5984 11.9999C30.4784 11.9999 31.1984 11.2799 31.1984 10.3999C31.1984 9.5199 30.4784 8.7999 29.5984 8.7999ZM19.9984 11.1999C15.1621 11.1999 11.1984 15.1635 11.1984 19.9999C11.1984 24.8363 15.1621 28.7999 19.9984 28.7999C24.8348 28.7999 28.7984 24.8363 28.7984 19.9999C28.7984 15.1635 24.8348 11.1999 19.9984 11.1999ZM19.9984 12.7999C23.9621 12.7999 27.1984 16.0363 27.1984 19.9999C27.1984 23.9635 23.9621 27.1999 19.9984 27.1999C16.0348 27.1999 12.7984 23.9635 12.7984 19.9999C12.7984 16.0363 16.0348 12.7999 19.9984 12.7999Z" fill="#FFC727"/>
</svg>
