<svg width="250" height="78" viewBox="0 0 250 78" fill="none" xmlns="http://www.w3.org/2000/svg">
<g clip-path="url(#clip0_996_817)">
<path d="M131.593 32.9083L129.55 28.0182C127.474 23.0526 123.863 20.0457 114.69 15.6408C112.327 14.5069 109.891 13.2372 108.087 11.6432C102.218 6.40365 102.695 0.251419 102.717 0L104.778 0.18605L106.842 0.354501C106.829 0.530495 106.592 4.73423 110.834 8.51306C112.249 9.77016 114.383 10.8714 116.476 11.8745C123.481 15.2385 128.267 18.1852 131.346 22.6604C134.278 17.9262 138.777 15.6911 145.4 12.4L146.426 11.8972C148.749 10.7406 150.78 9.68719 152.103 8.51557C156.345 4.74428 156.095 0.538037 156.08 0.362044L160.2 0C160.225 0.251419 160.699 6.40365 154.838 11.6357C153.128 13.1442 150.845 14.3384 148.257 15.6282L147.227 16.1311C139.242 20.1035 135.581 21.9137 133.405 27.9151L131.593 32.9083Z" fill="#FFC727"/>
<path d="M145.084 30.6448C142.565 30.6499 140.101 29.8979 138.009 28.4849C135.916 27.0719 134.289 25.0621 133.336 22.7125L137.166 21.1185C137.657 22.3274 138.415 23.4079 139.381 24.2785C140.347 25.1491 141.498 25.7869 142.745 26.1438C143.992 26.5006 145.303 26.5672 146.579 26.3383C147.855 26.1095 149.063 25.5913 150.112 24.823C151.16 24.0546 152.021 23.0561 152.63 21.9031C153.239 20.7501 153.58 19.4726 153.627 18.1674C153.674 16.8621 153.426 15.5632 152.901 14.3688C152.376 13.1743 151.589 12.1157 150.599 11.273L153.269 8.08496C155.256 9.77542 156.679 12.0401 157.346 14.5724C158.013 17.1047 157.892 19.7825 156.999 22.2432C156.106 24.7039 154.484 26.8287 152.353 28.3301C150.222 29.8314 147.684 30.6368 145.084 30.6373V30.6448Z" fill="#FFC727"/>
<path d="M117.838 30.6461C115.237 30.6461 112.699 29.8411 110.568 28.3399C108.436 26.8387 106.814 24.7139 105.921 22.2531C105.027 19.7923 104.906 17.1144 105.573 14.5818C106.24 12.0492 107.664 9.78434 109.65 8.09375L112.323 11.2817C111.335 12.1261 110.551 13.1854 110.029 14.3799C109.507 15.5743 109.261 16.8727 109.31 18.1768C109.359 19.481 109.701 20.757 110.311 21.9084C110.921 23.0598 111.782 24.0566 112.83 24.8235C113.878 25.5905 115.086 26.1075 116.361 26.3355C117.636 26.5636 118.947 26.4967 120.193 26.14C121.439 25.7833 122.588 25.1461 123.554 24.2764C124.52 23.4068 125.277 22.3274 125.768 21.1198L129.596 22.7062C128.644 25.0592 127.016 27.072 124.921 28.4867C122.826 29.9013 120.36 30.6532 117.838 30.6461Z" fill="#FFC727"/>
<path d="M149.074 20.6723C149.195 20.6722 149.315 20.6604 149.434 20.6371C148.894 21.5668 148.049 22.277 147.045 22.6445C146.04 23.012 144.939 23.0136 143.934 22.6491C142.928 22.2846 142.081 21.577 141.539 20.6489C140.996 19.7208 140.794 18.6309 140.966 17.5681C141.138 16.5053 141.674 15.5367 142.48 14.8302C143.287 14.1238 144.314 13.724 145.382 13.7003C146.451 13.6766 147.494 14.0305 148.33 14.7005C149.167 15.3706 149.745 16.3145 149.963 17.3687C149.695 17.2043 149.388 17.1173 149.074 17.1173C148.609 17.1173 148.162 17.3037 147.832 17.6357C147.503 17.9676 147.318 18.4178 147.318 18.8872C147.318 19.3567 147.503 19.8069 147.832 20.1388C148.162 20.4708 148.609 20.6572 149.074 20.6572V20.6723Z" fill="#FFC727"/>
<path d="M121.476 21.7708C121.596 21.771 121.716 21.7584 121.833 21.733C121.293 22.6616 120.448 23.3705 119.443 23.7368C118.439 24.1031 117.339 24.1037 116.335 23.7386C115.33 23.3734 114.484 22.6655 113.943 21.7376C113.402 20.8097 113.2 19.7203 113.373 18.6583C113.545 17.5963 114.082 16.6287 114.888 15.9232C115.695 15.2178 116.721 14.819 117.789 14.796C118.857 14.773 119.899 15.1272 120.735 15.7973C121.57 16.4674 122.147 17.411 122.365 18.4646C122.097 18.3013 121.789 18.2144 121.476 18.2132C121.01 18.2132 120.563 18.3997 120.234 18.7316C119.905 19.0635 119.719 19.5137 119.719 19.9832C119.719 20.4526 119.905 20.9028 120.234 21.2347C120.563 21.5667 121.01 21.7532 121.476 21.7532V21.7708Z" fill="#FFC727"/>
<path d="M129.011 77.4997H126.94C121.833 77.4937 116.936 75.4469 113.325 71.8082C109.713 68.1695 107.682 63.236 107.676 58.0901V43.9126C107.677 42.4234 108.265 40.9955 109.31 39.9425C110.355 38.8894 111.772 38.2972 113.25 38.2959H129.011V77.4997ZM113.253 42.4669C112.873 42.4676 112.508 42.6201 112.239 42.8911C111.97 43.1621 111.819 43.5294 111.818 43.9126V58.0901C111.823 61.7695 113.146 65.3234 115.545 68.0976C117.944 70.8717 121.257 72.6794 124.874 73.1879V42.4669H113.253Z" fill="#FFC727"/>
<path d="M135.979 77.4997H133.91V63.1688H138.05V73.1879C141.666 72.6788 144.978 70.8709 147.377 68.0968C149.775 65.3227 151.099 61.7692 151.103 58.0901V57.004H133.91V38.2959H149.671C151.148 38.2979 152.565 38.8904 153.61 39.9434C154.654 40.9963 155.242 42.4238 155.243 43.9126V46.3866H151.103V43.9126C151.103 43.5296 150.952 43.1623 150.684 42.8913C150.415 42.6202 150.051 42.4676 149.671 42.4669H138.05V52.833H155.243V58.0901C155.237 63.236 153.206 68.1695 149.594 71.8082C145.983 75.4469 141.086 77.4937 135.979 77.4997Z" fill="#FFC727"/>
<path d="M18.9123 46.4896C18.9123 53.8034 14.2235 58.3641 6.73747 58.3641H0V34.5547H6.73747C14.2235 34.5396 18.9123 39.1205 18.9123 46.4896ZM15.1693 46.4745C15.1693 41.4235 11.9253 38.2632 6.72499 38.2632H3.69313V54.6431H6.75743C11.9178 54.6431 15.1593 51.4979 15.1593 46.4745H15.1693Z" fill="#FFC727"/>
<path d="M18.0898 57.1824L19.9639 53.8888C20.9413 54.6884 22.166 55.1172 23.4249 55.1007H23.5272C25.0537 55.0783 26.5104 54.4529 27.5838 53.3592C28.6572 52.2654 29.2615 50.7908 29.2666 49.2527L29.1917 34.5547L32.9023 34.5698L32.9747 49.2803C32.9852 50.533 32.7491 51.7755 32.2799 52.9356C31.8107 54.0958 31.1178 55.1507 30.2412 56.0392C29.3647 56.9277 28.3219 57.6323 27.1733 58.112C26.0247 58.5918 24.7931 58.8373 23.5497 58.8342H23.3875C21.4977 58.8278 19.6529 58.2526 18.0898 57.1824Z" fill="#FFC727"/>
<path d="M37.0742 49.3407V34.5547H40.7973V49.3256C40.7973 52.6192 43.098 55.0278 45.9876 55.0278C48.8773 55.0278 51.2054 52.6192 51.2054 49.3256V34.5547H54.9485V49.3407C54.9485 54.8065 51.0357 58.8091 46.0051 58.8091C40.9745 58.8091 37.0742 54.809 37.0742 49.3407Z" fill="#FFC727"/>
<path d="M73.5024 54.6431V58.3641H59.2539V34.5547H62.962V54.6431H73.5024Z" fill="#FFC727"/>
<path d="M76.2422 49.3407V34.5547H79.9653V49.3256C79.9653 52.6192 82.266 55.0278 85.1531 55.0278C88.0402 55.0278 90.3734 52.6192 90.3734 49.3256V34.5547H94.1164V49.3407C94.1164 54.8065 90.2012 58.8091 85.1731 58.8091C80.1449 58.8091 76.2422 54.809 76.2422 49.3407Z" fill="#FFC727"/>
<path d="M167.703 54.1178L170.635 52.0059C171.691 53.8689 173.655 54.9324 175.928 54.9324C178.58 54.9324 180.589 53.6451 180.589 51.8299C180.589 49.6275 177.482 48.31 174.725 47.1032C171.955 45.8612 168.876 44.4155 168.876 40.6769C168.876 36.7774 172.232 34.0596 176.484 34.0596C179.856 34.0596 182.378 35.7013 183.344 38.3136L180.599 40.2344C180.232 39.4651 179.652 38.8189 178.929 38.373C178.206 37.9271 177.371 37.7005 176.524 37.7202C174.353 37.7202 172.624 39.0804 172.624 40.7649C172.624 42.6254 174.807 43.2791 177.682 44.5362C181.425 46.1906 184.322 48.0058 184.322 51.757C184.322 55.9833 180.686 58.7012 175.893 58.7012C171.998 58.6987 169.051 56.8658 167.703 54.1178Z" fill="#FFC727"/>
<path d="M201.202 54.6822H190.015L188.4 58.3001H184.383L195.495 34.0029H195.714L206.829 58.3001H202.811L201.202 54.6822ZM199.764 51.4766L195.614 42.1741L191.452 51.4766H199.764Z" fill="#FFC727"/>
<path d="M222.441 58.2996L216.078 49.0826H213.176V58.2996H209.468L209.453 34.4902H216.797C221.196 34.4902 224.802 37.902 224.802 42.1409C224.811 43.601 224.364 45.027 223.525 46.2175C222.686 47.408 221.497 48.3029 220.126 48.7759L227 58.3022L222.441 58.2996ZM216.884 45.9801C219.113 45.9952 220.974 44.1799 220.974 42.0529C220.974 39.8379 219.085 38.1962 216.884 38.1962H213.161V45.9902L216.884 45.9801Z" fill="#FFC727"/>
<path d="M244.369 54.6822H233.185L231.568 58.3001H227.551L238.663 34.0029H238.882L249.994 58.3001H245.984L244.369 54.6822ZM242.935 51.4766L238.785 42.1741L234.623 51.4766H242.935Z" fill="#FFC727"/>
</g>
<defs>
<clipPath id="clip0_996_817">
<rect width="250" height="77.5" fill="white"/>
</clipPath>
</defs>
</svg>
