<svg width="40" height="40" viewBox="0 0 40 40" fill="none" xmlns="http://www.w3.org/2000/svg">
<path d="M11.5026 34.335C14.0026 35.835 17.0026 36.6683 20.0026 36.6683C29.1693 36.6683 36.6693 29.1683 36.6693 20.0016C36.6693 10.835 29.1693 3.33496 20.0026 3.33496C10.8359 3.33496 3.33594 10.835 3.33594 20.0016C3.33594 23.0016 4.16927 25.835 5.5026 28.335L3.92319 34.4096C3.66356 35.4082 4.58784 36.3106 5.57992 36.0272L11.5026 34.335Z" stroke="#FFC727" stroke-width="2" stroke-miterlimit="10" stroke-linecap="round" stroke-linejoin="round"/>
<path d="M27.5 24.7475C27.5 25.0175 27.4399 25.295 27.3122 25.565C27.1845 25.835 27.0193 26.09 26.8015 26.33C26.4334 26.735 26.0278 27.0275 25.5696 27.215C25.1189 27.4025 24.6307 27.5 24.1049 27.5C23.3388 27.5 22.52 27.32 21.6562 26.9525C20.7924 26.585 19.9286 26.09 19.0724 25.4675C18.2086 24.8375 17.3898 24.14 16.6087 23.3675C15.835 22.5875 15.1365 21.77 14.513 20.915C13.8971 20.06 13.4014 19.205 13.0408 18.3575C12.6803 17.5025 12.5 16.685 12.5 15.905C12.5 15.395 12.5901 14.9075 12.7704 14.4575C12.9507 14 13.2361 13.58 13.6342 13.205C14.1149 12.7325 14.6407 12.5 15.1965 12.5C15.4069 12.5 15.6172 12.545 15.805 12.635C16.0003 12.725 16.173 12.86 16.3082 13.055L18.0508 15.5075C18.186 15.695 18.2837 15.8675 18.3513 16.0325C18.4189 16.19 18.4564 16.3475 18.4564 16.49C18.4564 16.67 18.4039 16.85 18.2987 17.0225C18.2011 17.195 18.0583 17.375 17.8781 17.555L17.3072 18.1475C17.2246 18.23 17.187 18.3275 17.187 18.4475C17.187 18.5075 17.1945 18.56 17.2096 18.62C17.2321 18.68 17.2546 18.725 17.2697 18.77C17.4049 19.0175 17.6377 19.34 17.9682 19.73C18.3062 20.12 18.6667 20.5175 19.0573 20.915C19.4629 21.3125 19.8535 21.68 20.2516 22.0175C20.6422 22.3475 20.9652 22.5725 21.2206 22.7075C21.2581 22.7225 21.3032 22.745 21.3558 22.7675C21.4159 22.79 21.476 22.7975 21.5436 22.7975C21.6713 22.7975 21.7689 22.7525 21.8515 22.67L22.4224 22.1075C22.6102 21.92 22.7904 21.7775 22.9632 21.6875C23.136 21.5825 23.3087 21.53 23.4965 21.53C23.6392 21.53 23.7894 21.56 23.9547 21.6275C24.1199 21.695 24.2927 21.7925 24.4805 21.92L26.9667 23.6825C27.162 23.8175 27.2972 23.975 27.3798 24.1625C27.4549 24.35 27.5 24.5375 27.5 24.7475Z" stroke="#FFC727" stroke-width="2" stroke-miterlimit="10"/>
</svg>
