<svg width="32" height="32" viewBox="0 0 32 32" fill="none" xmlns="http://www.w3.org/2000/svg">
<g clip-path="url(#clip0_1_4704)">
<path d="M24.6654 6.38672C21.1987 12.4534 14.5187 15.9334 7.5587 15.3067L3.33203 14.9201" stroke="white" stroke-width="1.33333" stroke-miterlimit="10" stroke-linecap="round" stroke-linejoin="round"/>
<path d="M7.33203 25.8283C10.7987 19.7617 17.4787 16.2817 24.4387 16.9083L28.6654 17.295" stroke="white" stroke-width="1.33333" stroke-miterlimit="10" stroke-linecap="round" stroke-linejoin="round"/>
<path d="M16.0013 29.3346C23.3651 29.3346 29.3346 23.3651 29.3346 16.0013C29.3346 8.63751 23.3651 2.66797 16.0013 2.66797C8.63751 2.66797 2.66797 8.63751 2.66797 16.0013C2.66797 23.3651 8.63751 29.3346 16.0013 29.3346Z" stroke="white" stroke-width="1.33333" stroke-miterlimit="10" stroke-linecap="round" stroke-linejoin="round"/>
<path d="M10.1719 4L14.4119 9.26667C17.2519 12.7867 19.2652 16.88 20.3319 21.2667L21.9452 27.92" stroke="white" stroke-width="1.33333" stroke-miterlimit="10" stroke-linecap="round" stroke-linejoin="round"/>
</g>
<defs>
<clipPath id="clip0_1_4704">
<rect width="32" height="32" fill="white"/>
</clipPath>
</defs>
</svg>
